PathFileType	4	(X/Y/Z)	C:/Users/beibeiliu/ov580/test_trc/User3\sequence.9_training_dense_left.trc
DataRate	CameraRate	NumFrames	NumMarkers	Units	OrigDataRate	OrigDataStartFrame	OrigNumFrames
120	120	9	19	mm	120	160	213
Frame#	Time	ThumbCMC			ThumbMCP			ThumbIP			ThumbTip			IndexMCP			IndexPIP			IndexTip			MiddleMCP			MiddlePIP			MiddleTip			RingMCP			RingPIP			RingTip			PinkyMCP			PinkyPIP			PinkyTip			BackHand1			BackHand2			BackHand3	
		X0	Y0	Z0	X1	Y1	Z1	X2	Y2	Z2	X3	Y3	Z3	X4	Y4	Z4	X5	Y5	Z5	X6	Y6	Z6	X7	Y7	Z7	X8	Y8	Z8	X9	Y9	Z9	X10	Y10	Z10	X11	Y11	Z11	X12	Y12	Z12	X13	Y13	Z13	X14	Y14	Z14	X15	Y15	Z15	X16	Y16	Z16	X17	Y17	Z17	X18	Y18	Z18	
159	1.325	-207.586	24.935	5.95458	-182.015	26.7336	-22.8031	-164.95	17.229	-46.9818	-153.34	-2.19073	-58.7637	-223.336	11.3333	-65.3512	-219.403	10.8168	-101.446	-196.907	10.993	-115.718	-202.242	-17.1309	-73.3181	-169.344	-12.4414	-82.5167	-164.182	-0.526024	-45.0596	-182.77	-29.6778	-56.9971	-155.676	-16.1608	-48.6354	-168.03	-7.66132	-18.8489	-178.947	-40.2526	-43.3954	-157.902	-27.2037	-32.5903	-166.286	-15.3662	-7.44971	-228.523	-33.8893	-17.9697	-236.531	-33.6291	10.0026	-236.443	-1.26939	-8.82483	
160	1.33333	-207.692	23.6396	7.87899	-182.98	27.4057	-19.1235	-163.187	20.1933	-44.3978	-152.018	-2.68834	-59.5986	-222.827	10.027	-67.0821	-221.844	15.4439	-97.1506	-200.911	19.1081	-121.576	-199.652	-12.3532	-76.114	-168.471	-7.45763	-82.0767	-164.243	-0.19709	-41.753	-184.151	-26.1411	-56.4907	-153.259	-18.2029	-43.9182	-165.659	-8.84566	-17.753	-177.96	-41.2826	-41.304	-154.738	-26.0236	-27.8129	-170.284	-13.5796	-4.7326	-227.365	-29.0481	-22.7895	-235.262	-28.5391	10.089	-237.806	2.88744	-6.86501	
161	1.34167	-206.775	24.4583	7.93722	-179.099	30.355	-18.0489	-161.799	19.5302	-42.7649	-150.389	-0.291542	-57.5246	-220.065	17.1298	-64.8259	-220.894	22.2756	-93.7313	-202.919	23.6449	-121.151	-198.875	-11.2588	-71.5841	-167.019	-7.7729	-81.4875	-160.517	0.300724	-43.1155	-180.02	-25.8769	-57.8365	-153.693	-14.6598	-47.4826	-166.372	-7.81091	-15.414	-178.282	-39.9082	-40.6587	-155.61	-25.6662	-31.6411	-166.576	-17.6941	-3.62945	-224.907	-29.355	-22.1713	-233.258	-32.5691	8.26063	-234.759	0.0688566	-8.2547	
162	1.35	-205.094	24.4595	8.01735	-177.516	29.2256	-17.0022	-158.051	23.422	-38.5466	-149.217	3.15502	-53.1165	-218.029	21.3434	-64.0874	-215.21	25.6586	-97.2061	-200.022	31.7985	-120.658	-195.795	-7.97106	-74.6112	-162.594	-0.445563	-79.7751	-158.503	5.28082	-41.7274	-176.815	-20.1514	-58.0129	-151.893	-15.4112	-45.7963	-161.655	-7.21832	-15.3624	-174.302	-37.6176	-42.825	-152.194	-26.6599	-28.1226	-168.36	-15.3355	-1.13166	-224.68	-27.7566	-20.3861	-233.522	-29.4182	7.27316	-234.605	6.85434	-5.45025	
163	1.35833	-202.825	27.0154	8.84877	-177.115	29.8627	-11.7132	-156.273	22.9616	-40.2636	-145.353	6.12572	-52.0805	-213.455	23.9431	-64.0275	-209.599	31.3933	-94.8089	-194.225	38.4618	-115.145	-193.733	-3.36863	-73.0775	-163.245	-1.66938	-79.6243	-156.261	7.47006	-41.6402	-178.183	-20.2345	-55.0065	-149.887	-12.4079	-46.9044	-160.937	-2.20801	-14.7482	-174.91	-33.8265	-40.8613	-151.641	-22.8986	-29.3134	-163.461	-15.3733	-3.92071	-224.77	-27.0525	-19.8738	-233.476	-25.6037	10.1476	-232.316	8.10885	-3.04174	
164	1.36667	-201.761	25.7739	10.0178	-175.469	30.1616	-9.97447	-157.219	22.409	-35.7199	-143.436	9.18417	-51.7791	-210.831	27.6909	-64.6533	-203.379	37.6521	-92.2418	-182.366	42.2669	-108.667	-193.312	0.0292472	-70.1769	-159.824	2.02784	-76.9477	-155.93	6.10308	-37.2668	-175.078	-17.7073	-54.1246	-146.93	-13.4251	-42.8382	-157.533	-2.15523	-14.2566	-172.575	-34.9999	-38.6256	-150.585	-18.5384	-27.0581	-165.584	-8.82413	-1.64866	-220.715	-26.1064	-18.3349	-231.766	-29.7121	12.208	-230.955	7.41633	-6.17157	
165	1.375	-201.027	28.3153	11.1375	-175.504	29.687	-9.13929	-155.138	24.4802	-35.0406	-143.118	8.94347	-49.5908	-206.971	28.2588	-60.4003	-191.469	35.6127	-91.3559	-164.553	39.7848	-99.9584	-189.583	-1.55359	-69.6235	-156.239	4.18119	-74.0792	-153.974	10.9285	-35.9277	-172.797	-13.1184	-53.1827	-144.932	-8.13518	-38.5597	-157.552	-0.52288	-10.9072	-169.448	-29.6518	-38.7116	-147.856	-22.2742	-23.1758	-163.994	-11.0892	-0.878762	-221.473	-26.571	-18.8299	-231.717	-26.2136	8.61365	-230.623	4.81184	-4.84009	
166	1.38333	-198.988	30.4146	13.6432	-171.767	33.5081	-6.70728	-151.303	29.929	-32.833	-143.004	8.85486	-45.7769	-199.782	28.9002	-59.1527	-178.228	36.7104	-86.5348	-145.746	41.9014	-81.9124	-186.322	2.33768	-70.6503	-153.744	6.73021	-72.0966	-151.668	9.05015	-32.4828	-171.096	-17.5592	-50.6753	-144.185	-8.27758	-37.7979	-157.028	-4.86351	-7.75366	-164.76	-31.1792	-35.6349	-149.131	-16.8104	-18.8852	-164.43	-12.7357	5.2365	-220.299	-25.3666	-17.8931	-230.722	-23.4999	11.1799	-227.261	11.5413	-4.50845	
167	1.39167	-198.123	30.7268	18.5051	-170.092	32.2624	-7.13466	-149.551	31.0093	-27.5559	-137.238	11.484	-45.7347	-193.431	30.3346	-62.7711	-166.484	35.0311	-81.6477	-137.937	35.7376	-67.1456	-183.785	1.42551	-67.7958	-152.753	6.26416	-71.9514	-150.151	6.24728	-31.2046	-170.934	-13.1627	-48.2376	-141.331	-9.2333	-34.2647	-157.895	-3.61804	-4.45465	-167.06	-28.5546	-34.9423	-146.336	-20.9856	-16.6235	-162.452	-14.2832	8.50805	-218.288	-22.6109	-19.8	-228.937	-23.6542	11.4162	-224.792	12.5234	-4.34558	
